<svg xmlns="http://www.w3.org/2000/svg" viewBox="0 0 960 720" width="960" height="720" role="img" aria-labelledby="hero-scene-t hero-scene-d"><title id="hero-scene-t">Мастер сервиса у встроенной техники</title><desc id="hero-scene-d">Плоская иллюстрация: мастер в фирменной куртке с планшетом и янтарным чемоданчиком стоит у кухни со встроенной посудомоечной и стиральной машинами и духовым шкафом.</desc><defs><pattern id="hero-dots" width="18" height="18" patternUnits="userSpaceOnUse"><circle cx="9.0" cy="9.0" r="2" fill="#0d5c6b" opacity=".22"/></pattern><pattern id="hero-tile" width="36" height="36" patternUnits="userSpaceOnUse"><path d="M36 0V36H0" fill="none" stroke="#d9ecee" stroke-width="2"/></pattern><clipPath id="hero-glass"><circle cx="702" cy="550" r="36"/></clipPath></defs><rect x="0" y="0" width="960" height="720" fill="#eaf3f4"/><rect x="36" y="36" width="216" height="144" fill="url(#hero-dots)"/><circle cx="380" cy="360" r="262" fill="#d9ecee"/><circle cx="380" cy="360" r="300" fill="none" stroke="#d9ecee" stroke-width="2" stroke-dasharray="4 10"/><circle cx="860" cy="70" r="64" fill="#fdf0d9"/><circle cx="96" cy="560" r="22" fill="#fdf0d9"/><rect x="0" y="620" width="960" height="100" fill="#f3f1ec"/><path d="M0 620H960" stroke="#e4e1da" stroke-width="2"/><rect x="466" y="620" width="476" height="8" fill="#14181f" opacity=".06"/><ellipse cx="330" cy="624" rx="132" ry="10" fill="#14181f" opacity=".09"/><g stroke="#14181f" stroke-width="3" stroke-linejoin="round" stroke-linecap="round"><rect x="470" y="226" width="312" height="204" fill="#fff"/><rect x="470" y="226" width="312" height="204" fill="url(#hero-tile)" stroke="none"/><rect x="470" y="110" width="312" height="116" fill="#fff"/><path d="M574 110V226M678 110V226" fill="none"/><rect x="556" y="196" width="6" height="20" rx="3" fill="#e4e1da"/><rect x="586" y="196" width="6" height="20" rx="3" fill="#e4e1da"/><rect x="764" y="196" width="6" height="20" rx="3" fill="#e4e1da"/><g transform="translate(-44 0)"><path d="M738 352Q718 326 724 300Q744 316 746 352Z" fill="#0d5c6b"/><path d="M750 352Q760 318 786 306Q784 336 758 356Z" fill="#0d5c6b"/><path d="M744 352Q736 312 748 286Q760 312 752 352Z" fill="#d9ecee"/><path d="M728 352H772L766 430H734Z" fill="#fdf0d9"/></g><rect x="458" y="430" width="330" height="20" rx="4" fill="#e4e1da"/><rect x="478" y="450" width="148" height="162" fill="#fff"/><rect x="478" y="450" width="148" height="30" fill="#d9ecee"/><circle cx="498" cy="465" r="6" fill="#f2a33a"/><rect x="530" y="459" width="48" height="12" rx="3" fill="#0d5c6b"/><circle cx="604" cy="465" r="4.5" fill="#fff"/><rect x="514" y="498" width="76" height="10" rx="5" fill="#e4e1da"/><rect x="632" y="450" width="142" height="162" fill="#fff"/><path d="M632 478H774" fill="none"/><rect x="644" y="458" width="36" height="12" rx="4" fill="#f3f1ec"/><rect x="690" y="458" width="34" height="12" rx="3" fill="#0d5c6b"/><circle cx="754" cy="464" r="7" fill="#f2a33a"/><circle cx="702" cy="550" r="50" fill="#f3f1ec"/><circle cx="702" cy="550" r="36" fill="#d9ecee"/><rect x="466" y="612" width="316" height="8" fill="#e4e1da"/><rect x="782" y="110" width="156" height="510" fill="#fff"/><path d="M782 290H938M782 528H938" fill="none"/><rect x="800" y="260" width="40" height="8" rx="4" fill="#e4e1da"/><rect x="796" y="302" width="128" height="144" rx="8" fill="#fff"/><path d="M796 330H924" fill="none"/><circle cx="814" cy="316" r="6" fill="#e4e1da"/><circle cx="906" cy="316" r="6" fill="#e4e1da"/><rect x="842" y="309" width="36" height="13" rx="3" fill="#0d5c6b"/><rect x="820" y="340" width="80" height="8" rx="4" fill="#e4e1da"/><rect x="810" y="358" width="100" height="74" rx="8" fill="#14181f"/><rect x="796" y="456" width="128" height="56" rx="6" fill="#f3f1ec"/><rect x="836" y="470" width="48" height="7" rx="3.5" fill="#e4e1da"/><rect x="800" y="542" width="40" height="8" rx="4" fill="#e4e1da"/></g><g stroke="none"><rect x="820" y="368" width="80" height="54" rx="5" fill="#0d5c6b" opacity=".75"/><circle cx="830" cy="378" r="4" fill="#f2a33a"/><path d="M818 408H902" fill="none" stroke="#d9ecee" stroke-width="2.5"/><circle cx="892" cy="316" r="4" fill="#f2a33a"/></g><g clip-path="url(#hero-glass)" stroke="none"><path d="M662 556q10 -8 20 0t20 0t20 0t20 0V600H662Z" fill="#0d5c6b" opacity=".28"/></g><g stroke="#14181f" stroke-width="3" stroke-linejoin="round" stroke-linecap="round"><circle cx="702" cy="550" r="36" fill="none"/></g><path d="M678 534a28 28 0 0 1 18 -12" fill="none" stroke="#fff" stroke-width="5"/><g stroke="#14181f" stroke-width="3" stroke-linejoin="round" stroke-linecap="round"><path d="M308 462H392L390 610H356L350 520L344 610H310Z" fill="#14181f"/><path d="M312 604H346V622H298Q298 608 312 604Z" fill="#e4e1da"/><path d="M354 604H388Q404 606 404 622H354Z" fill="#e4e1da"/></g><path d="M310 324Q284 392 282 446" fill="none" stroke="#14181f" stroke-width="32" stroke-linecap="round" stroke-linejoin="round"/><path d="M310 324Q284 392 282 446" fill="none" stroke="#0d5c6b" stroke-width="26" stroke-linecap="round" stroke-linejoin="round"/><g stroke="#14181f" stroke-width="3" stroke-linejoin="round" stroke-linecap="round"><path d="M302 334Q302 306 328 302H372Q398 306 398 334L394 472H306Z" fill="#0d5c6b"/><rect x="340" y="288" width="20" height="18" fill="#fdf0d9"/><path d="M334 302L350 324L366 302Z" fill="#d9ecee"/><path d="M350 324V470" fill="none" stroke-width="2.5"/><rect x="368" y="344" width="20" height="14" rx="3" fill="#f2a33a"/><rect x="306" y="452" width="88" height="14" fill="#14181f"/></g><g stroke="#14181f" stroke-width="3" stroke-linejoin="round" stroke-linecap="round"><circle cx="350" cy="262" r="32" fill="#fdf0d9"/><circle cx="322" cy="268" r="6.5" fill="#fdf0d9"/><path d="M318 258Q318 224 350 224Q380 224 382 254Z" fill="#0d5c6b"/><path d="M374 250H404Q410 250 408 258H372Z" fill="#0d5c6b"/><path d="M319 258Q316 274 324 284Q327 272 328 262Z" fill="#14181f"/></g><g stroke="#14181f" stroke-width="3" stroke-linejoin="round" stroke-linecap="round"><rect x="222" y="468" width="120" height="76" rx="12" fill="#f2a33a"/><path d="M222 494H342" fill="none"/><rect x="244" y="486" width="16" height="14" rx="3" fill="#14181f"/><rect x="304" y="486" width="16" height="14" rx="3" fill="#14181f"/><path d="M262 468V458Q262 450 270 450H294Q302 450 302 458V468" fill="none" stroke-width="7"/></g><g stroke="#14181f" stroke-width="3" stroke-linejoin="round" stroke-linecap="round"><circle cx="282" cy="452" r="11" fill="#fdf0d9"/></g><g stroke="#14181f" stroke-width="3" stroke-linejoin="round" stroke-linecap="round"><g transform="rotate(-8 372 402)"><rect x="334" y="356" width="76" height="96" rx="9" fill="#14181f"/><rect x="341" y="364" width="62" height="80" rx="5" fill="#d9ecee"/><rect x="348" y="374" width="30" height="6" rx="3" fill="#0d5c6b" stroke="none"/><rect x="348" y="388" width="46" height="6" rx="3" fill="#fff" stroke="none"/><rect x="348" y="400" width="38" height="6" rx="3" fill="#fff" stroke="none"/><rect x="348" y="420" width="22" height="14" rx="4" fill="#f2a33a" stroke="none"/></g></g><path d="M394 326Q420 372 404 404" fill="none" stroke="#14181f" stroke-width="32" stroke-linecap="round" stroke-linejoin="round"/><path d="M394 326Q420 372 404 404" fill="none" stroke="#0d5c6b" stroke-width="26" stroke-linecap="round" stroke-linejoin="round"/><g stroke="#14181f" stroke-width="3" stroke-linejoin="round" stroke-linecap="round"><circle cx="400" cy="408" r="11" fill="#fdf0d9"/></g><rect x="200" y="140" width="168" height="66" rx="16" fill="#14181f" opacity=".06" transform="translate(4 6)"/><g stroke="#14181f" stroke-width="3" stroke-linejoin="round" stroke-linecap="round"><rect x="200" y="140" width="168" height="66" rx="16" fill="#fff"/></g><g transform="translate(234 173) scale(0.9)"><circle r="22" fill="#f2a33a" stroke="#fff" stroke-width="4"/><path d="M-8 8 L2.5 -2.5" stroke="#14181f" stroke-width="4.5" stroke-linecap="round" fill="none"/><circle cx="4.6" cy="-4.6" r="6.6" fill="none" stroke="#14181f" stroke-width="4"/><path d="M4.6 -4.6 L11 -11" stroke="#f2a33a" stroke-width="5" stroke-linecap="round"/></g><g stroke="none"><rect x="266" y="160" width="82" height="8" rx="4" fill="#14181f"/><rect x="266" y="178" width="60" height="8" rx="4" fill="#d9ecee"/></g><g transform="translate(626 452) scale(1)"><circle r="18" fill="#0d5c6b" stroke="#fff" stroke-width="4"/><path d="M-7 0.5 L-2 5.5 L8 -5" fill="none" stroke="#fff" stroke-width="4" stroke-linecap="round" stroke-linejoin="round"/></g><path d="M144 289 Q146 298 155 300 Q146 302 144 311 Q142 302 133 300 Q142 298 144 289Z" fill="#f2a33a" stroke="none"/><path d="M452 112 Q453.4 118.6 460 120 Q453.4 121.4 452 128 Q450.6 121.4 444 120 Q450.6 118.6 452 112Z" fill="#0d5c6b" stroke="none"/><path d="M870 191 Q871.6 198.4 879 200 Q871.6 201.6 870 209 Q868.4 201.6 861 200 Q868.4 198.4 870 191Z" fill="#f2a33a" stroke="none"/><path d="M430 553 Q431.3 558.7 437 560 Q431.3 561.3 430 567 Q428.7 561.3 423 560 Q428.7 558.7 430 553Z" fill="#0d5c6b" stroke="none"/></svg>
