<svg xmlns="http://www.w3.org/2000/svg" viewBox="0 0 640 480" width="640" height="480" role="img" aria-labelledby="parking-facade-t parking-facade-d"><title id="parking-facade-t">Фасад и парковка</title><desc id="parking-facade-d">Фасад сервиса с вывеской, входом под янтарным козырьком и витриной; рядом парковка со знаком и автомобилем.</desc><defs><pattern id="parking-facade-dots" width="16" height="16" patternUnits="userSpaceOnUse"><circle cx="8.0" cy="8.0" r="1.6" fill="#0d5c6b" opacity=".22"/></pattern></defs><rect x="0" y="0" width="640" height="480" fill="#eaf3f4"/><rect x="28" y="28" width="160" height="96" fill="url(#parking-facade-dots)"/><circle cx="560" cy="70" r="40" fill="#fdf0d9"/><rect x="0" y="400" width="640" height="80" fill="#f3f1ec"/><path d="M0 400H640" stroke="#e4e1da" stroke-width="2"/><ellipse cx="320" cy="402" rx="260" ry="9" fill="#14181f" opacity=".08"/><g stroke="#14181f" stroke-width="3" stroke-linejoin="round" stroke-linecap="round"><rect x="70" y="78" width="500" height="16" rx="4" fill="#e4e1da"/><rect x="84" y="94" width="472" height="306" fill="#fff"/><rect x="110" y="112" width="280" height="52" rx="10" fill="#0d5c6b"/><rect x="420" y="112" width="112" height="80" rx="6" fill="#d9ecee"/><path d="M476 112V192" fill="none"/><rect x="128" y="236" width="92" height="164" rx="6" fill="#d9ecee"/><path d="M174 236V400" fill="none"/><rect x="162" y="310" width="6" height="26" rx="3" fill="#14181f"/><rect x="180" y="310" width="6" height="26" rx="3" fill="#14181f"/><path d="M116 220H232L224 236H124Z" fill="#f2a33a"/><rect x="256" y="236" width="180" height="112" rx="6" fill="#d9ecee"/><path d="M346 236V348" fill="none"/><rect x="116" y="400" width="116" height="10" rx="3" fill="#e4e1da"/><rect x="478" y="222" width="44" height="44" rx="8" fill="#0d5c6b"/><path d="M402 396V372Q402 360 414 358L446 352L474 326Q480 320 490 320H556Q566 320 572 328L590 352Q608 356 610 370V396Z" fill="#0d5c6b"/><path d="M482 330H520V352H460Z" fill="#d9ecee"/><path d="M528 330H554Q560 330 564 336L574 352H528Z" fill="#d9ecee"/><circle cx="444" cy="398" r="18" fill="#14181f"/><circle cx="444" cy="398" r="7" fill="#e4e1da"/><circle cx="566" cy="398" r="18" fill="#14181f"/><circle cx="566" cy="398" r="7" fill="#e4e1da"/></g><g stroke="#14181f" stroke-width="3" stroke-linejoin="round" stroke-linecap="round"><rect x="40" y="300" width="14" height="100" rx="4" fill="#e4e1da"/><circle cx="47" cy="262" r="40" fill="#0d5c6b"/><circle cx="70" cy="290" r="24" fill="#0d5c6b"/></g><g stroke="none"><path d="M491 256V232H503Q511 232 511 239Q511 246 503 246H491" fill="none" stroke="#fff" stroke-width="4" stroke-linecap="round" stroke-linejoin="round"/><path d="M270 260l22 -16M290 282l40 -30M380 270l30 -22" fill="none" stroke="#fff" stroke-width="4" stroke-linecap="round" opacity=".8"/><rect x="0" y="410" width="640" height="70" fill="#e4e1da" opacity=".55"/><path d="M300 470L330 414" fill="none" stroke="#fff" stroke-width="4" stroke-linecap="round"/><path d="M372 470L402 414" fill="none" stroke="#fff" stroke-width="4" stroke-linecap="round"/><path d="M444 470L474 414" fill="none" stroke="#fff" stroke-width="4" stroke-linecap="round"/><path d="M516 470L546 414" fill="none" stroke="#fff" stroke-width="4" stroke-linecap="round"/><circle cx="608" cy="370" r="4" fill="#f2a33a"/></g><g transform="translate(146 138) scale(1)"><g transform="translate(0 0) scale(0.7)"><circle r="22" fill="#f2a33a" stroke="#fff" stroke-width="4"/><path d="M-8 8 L2.5 -2.5" stroke="#14181f" stroke-width="4.5" stroke-linecap="round" fill="none"/><circle cx="4.6" cy="-4.6" r="6.6" fill="none" stroke="#14181f" stroke-width="4"/><path d="M4.6 -4.6 L11 -11" stroke="#f2a33a" stroke-width="5" stroke-linecap="round"/></g><g stroke="none"><rect x="26" y="-10" width="96" height="8" rx="4" fill="#fff"/><rect x="26" y="4" width="64" height="6" rx="3" fill="#d9ecee"/></g></g><path d="M600 162 Q601.4 168.6 608 170 Q601.4 171.4 600 178 Q598.6 171.4 592 170 Q598.6 168.6 600 162Z" fill="#f2a33a" stroke="none"/></svg>
