<svg xmlns="http://www.w3.org/2000/svg" viewBox="0 0 320 240" width="320" height="240" role="img" aria-labelledby="step-intake-t step-intake-d"><title id="step-intake-t">Шаг 3: приём с фотофиксацией</title><desc id="step-intake-d">Стиральная машина на приёмке, её фотографируют на телефон, рядом акт приёма — состояние техники фиксируем.</desc><defs><pattern id="step-intake-dots" width="12" height="12" patternUnits="userSpaceOnUse"><circle cx="6.0" cy="6.0" r="1.3" fill="#0d5c6b" opacity=".22"/></pattern></defs><rect x="0" y="0" width="320" height="240" fill="#eaf3f4"/><rect x="16" y="16" width="96" height="64" fill="url(#step-intake-dots)"/><circle cx="160" cy="116" r="88" fill="#d9ecee"/><circle cx="282" cy="40" r="16" fill="#fdf0d9"/><circle cx="40" cy="200" r="8" fill="#fdf0d9"/><ellipse cx="160" cy="204" rx="110" ry="6" fill="#14181f" opacity=".08"/><g stroke="#14181f" stroke-width="2.5" stroke-linejoin="round" stroke-linecap="round"><rect x="52" y="80" width="92" height="112" rx="10" fill="#fff"/><path d="M52 102H144" fill="none"/><rect x="62" y="87" width="24" height="9" rx="3" fill="#f3f1ec"/><rect x="96" y="87" width="22" height="9" rx="3" fill="#0d5c6b"/><circle cx="130" cy="91.5" r="5" fill="#f2a33a"/><circle cx="98" cy="146" r="30" fill="#f3f1ec"/><circle cx="98" cy="146" r="20" fill="#d9ecee"/><rect x="60" y="192" width="14" height="5" rx="2" fill="#14181f"/><rect x="122" y="192" width="14" height="5" rx="2" fill="#14181f"/></g><path d="M84 136a18 18 0 0 1 10 -8" fill="none" stroke="#fff" stroke-width="3.5"/><g stroke="#14181f" stroke-width="2.5" stroke-linejoin="round" stroke-linecap="round"><g transform="rotate(8 262 150)"><rect x="232" y="110" width="60" height="78" rx="6" fill="#fff"/><path d="M242 126h40M242 136h40M242 146h28" fill="none"/><circle cx="270" cy="170" r="9" fill="none" stroke="#f2a33a"/></g></g><g stroke="#14181f" stroke-width="2.5" stroke-linejoin="round" stroke-linecap="round"><rect x="166" y="52" width="84" height="132" rx="12" fill="#14181f"/><rect x="172" y="62" width="72" height="112" rx="7" fill="#d9ecee"/><rect x="190" y="88" width="36" height="50" rx="5" fill="#fff"/><circle cx="208" cy="120" r="11" fill="#d9ecee"/><path d="M190 98H226" fill="none"/></g><path d="M178 78v-8h8M238 78v-8h-8M178 158v8h8M238 158v8h-8" fill="none" stroke="#f2a33a" stroke-width="3" stroke-linecap="round" stroke-linejoin="round"/><g stroke-width="3" stroke-linejoin="round" stroke-linecap="round" stroke="#f2a33a"><path d="M258 38l8 -8M266 52h10M248 30v-10" fill="none"/></g><circle cx="208" cy="57" r="1.8" fill="#e4e1da"/></svg>
