<svg xmlns="http://www.w3.org/2000/svg" viewBox="0 0 480 360" width="480" height="360" role="img" aria-labelledby="robot-vacuum-t robot-vacuum-d"><title id="robot-vacuum-t">Робот-пылесос и пылесос</title><desc id="robot-vacuum-d">Робот-пылесос с лидаром едет по полу, рядом вертикальный пылесос.</desc><defs><pattern id="robot-vacuum-dots" width="16" height="16" patternUnits="userSpaceOnUse"><circle cx="8.0" cy="8.0" r="1.6" fill="#0d5c6b" opacity=".22"/></pattern></defs><rect x="0" y="0" width="480" height="360" fill="#eaf3f4"/><rect x="32" y="32" width="144" height="96" fill="url(#robot-vacuum-dots)"/><circle cx="240" cy="180" r="130" fill="#d9ecee"/><circle cx="410" cy="70" r="26" fill="#fdf0d9"/><circle cx="70" cy="292" r="10" fill="#fdf0d9"/><rect x="0" y="300" width="480" height="60" fill="#f3f1ec"/><path d="M0 300H480" stroke="#e4e1da" stroke-width="2"/><ellipse cx="240" cy="302" rx="150" ry="8" fill="#14181f" opacity=".08"/><path d="M40 290Q90 262 130 276" fill="none" stroke="#0d5c6b" stroke-width="3" stroke-dasharray="2 9" opacity=".6"/><g transform="translate(0 20)"><g stroke="#14181f" stroke-width="3" stroke-linejoin="round" stroke-linecap="round"><path d="M100 228V246A110 32 0 0 0 320 246V228Z" fill="#14181f"/><ellipse cx="210" cy="228" rx="110" ry="32" fill="#fff"/><ellipse cx="210" cy="226" rx="74" ry="19" fill="#f3f1ec"/><path d="M188 222V208H232V222Z" fill="#fff"/><ellipse cx="210" cy="208" rx="22" ry="6" fill="#d9ecee"/><ellipse cx="262" cy="236" rx="9" ry="4" fill="#f2a33a"/></g></g><path d="M398 62L386 276" fill="none" stroke="#14181f" stroke-width="14" stroke-linecap="round" stroke-linejoin="round"/><path d="M398 62L386 276" fill="none" stroke="#e4e1da" stroke-width="8" stroke-linecap="round" stroke-linejoin="round"/><g stroke="#14181f" stroke-width="3" stroke-linejoin="round" stroke-linecap="round"><rect x="384" y="46" width="20" height="30" rx="8" fill="#14181f"/><path d="M372 96Q370 90 376 88L404 86Q410 86 410 92L412 150Q412 158 404 158H380Q372 158 372 150Z" fill="#0d5c6b"/><rect x="378" y="112" width="28" height="34" rx="6" fill="#d9ecee"/><circle cx="392" cy="100" r="4" fill="#f2a33a"/><path d="M352 272H412Q420 272 420 280V292H352Q346 292 346 286V278Q346 272 352 272Z" fill="#0d5c6b"/></g><g stroke="none"><circle cx="330" cy="292" r="2.5" fill="#14181f" opacity=".35"/><circle cx="342" cy="286" r="2" fill="#14181f" opacity=".35"/><circle cx="320" cy="286" r="1.8" fill="#14181f" opacity=".35"/></g><path d="M120 132 Q121.4 138.6 128 140 Q121.4 141.4 120 148 Q118.6 141.4 112 140 Q118.6 138.6 120 132Z" fill="#f2a33a" stroke="none"/><g transform="translate(306 214) scale(1)"><circle r="22" fill="#f2a33a" stroke="#fff" stroke-width="4"/><path d="M-8 8 L2.5 -2.5" stroke="#14181f" stroke-width="4.5" stroke-linecap="round" fill="none"/><circle cx="4.6" cy="-4.6" r="6.6" fill="none" stroke="#14181f" stroke-width="4"/><path d="M4.6 -4.6 L11 -11" stroke="#f2a33a" stroke-width="5" stroke-linecap="round"/></g></svg>
