<svg xmlns="http://www.w3.org/2000/svg" viewBox="0 0 320 240" width="320" height="240" role="img" aria-labelledby="step-handover-t step-handover-d"><title id="step-handover-t">Шаг 6: выдача с гарантией</title><desc id="step-handover-d">Отремонтированная стиральная машина и гарантийный талон с печатью — выдаём технику с документами.</desc><defs><pattern id="step-handover-dots" width="12" height="12" patternUnits="userSpaceOnUse"><circle cx="6.0" cy="6.0" r="1.3" fill="#0d5c6b" opacity=".22"/></pattern></defs><rect x="0" y="0" width="320" height="240" fill="#eaf3f4"/><rect x="16" y="16" width="96" height="64" fill="url(#step-handover-dots)"/><circle cx="160" cy="116" r="88" fill="#d9ecee"/><circle cx="282" cy="40" r="16" fill="#fdf0d9"/><circle cx="40" cy="200" r="8" fill="#fdf0d9"/><ellipse cx="168" cy="204" rx="110" ry="6" fill="#14181f" opacity=".08"/><g stroke="#14181f" stroke-width="2.5" stroke-linejoin="round" stroke-linecap="round"><rect x="64" y="84" width="92" height="112" rx="10" fill="#fff"/><path d="M64 106H156" fill="none"/><rect x="74" y="91" width="24" height="9" rx="3" fill="#f3f1ec"/><rect x="108" y="91" width="22" height="9" rx="3" fill="#0d5c6b"/><circle cx="142" cy="95.5" r="5" fill="#f2a33a"/><circle cx="110" cy="150" r="30" fill="#f3f1ec"/><circle cx="110" cy="150" r="20" fill="#d9ecee"/><rect x="72" y="196" width="14" height="5" rx="2" fill="#14181f"/><rect x="134" y="196" width="14" height="5" rx="2" fill="#14181f"/></g><path d="M96 140a18 18 0 0 1 10 -8" fill="none" stroke="#fff" stroke-width="3.5"/><g stroke="#14181f" stroke-width="2.5" stroke-linejoin="round" stroke-linecap="round"><g transform="rotate(6 222 112)"><rect x="180" y="52" width="86" height="116" rx="8" fill="#fff"/><path d="M180 60Q180 52 188 52H258Q266 52 266 60V72H180Z" fill="#0d5c6b"/><path d="M192 88h62M192 100h62M192 112h40" fill="none"/><path d="M214 150l-6 24 10 -6 6 10 4 -24z" fill="#f2a33a"/><path d="M234 150l6 24 -10 -6 -6 10 -4 -24z" fill="#f2a33a"/><circle cx="224" cy="140" r="15" fill="#f2a33a"/><path d="M217 140l5 5 9 -9" fill="none"/></g></g><g transform="translate(150 86) scale(0.9)"><circle r="18" fill="#0d5c6b" stroke="#fff" stroke-width="4"/><path d="M-7 0.5 L-2 5.5 L8 -5" fill="none" stroke="#fff" stroke-width="4" stroke-linecap="round" stroke-linejoin="round"/></g><path d="M52 65 Q53.3 70.7 59 72 Q53.3 73.3 52 79 Q50.7 73.3 45 72 Q50.7 70.7 52 65Z" fill="#f2a33a" stroke="none"/><path d="M284 144 Q285.1 148.9 290 150 Q285.1 151.1 284 156 Q282.9 151.1 278 150 Q282.9 148.9 284 144Z" fill="#0d5c6b" stroke="none"/><path d="M46 145 Q46.9 149.1 51 150 Q46.9 150.9 46 155 Q45.1 150.9 41 150 Q45.1 149.1 46 145Z" fill="#f2a33a" stroke="none"/></svg>
