<svg xmlns="http://www.w3.org/2000/svg" viewBox="0 0 640 480" width="640" height="480" role="img" aria-labelledby="workshop-t workshop-d"><title id="workshop-t">Мастерская</title><desc id="workshop-d">Рабочее место мастера: перфопанель с инструментом, верстак с электродвигателем, мультиметром и лампой.</desc><defs><pattern id="workshop-dots" width="16" height="16" patternUnits="userSpaceOnUse"><circle cx="8.0" cy="8.0" r="1.6" fill="#0d5c6b" opacity=".22"/></pattern><pattern id="workshop-peg" width="20" height="20" patternUnits="userSpaceOnUse"><circle cx="10" cy="10" r="2" fill="#e4e1da"/></pattern></defs><rect x="0" y="0" width="640" height="480" fill="#eaf3f4"/><rect x="28" y="28" width="160" height="96" fill="url(#workshop-dots)"/><circle cx="560" cy="70" r="40" fill="#fdf0d9"/><rect x="0" y="400" width="640" height="80" fill="#f3f1ec"/><path d="M0 400H640" stroke="#e4e1da" stroke-width="2"/><ellipse cx="320" cy="402" rx="270" ry="9" fill="#14181f" opacity=".08"/><g stroke="#14181f" stroke-width="3" stroke-linejoin="round" stroke-linecap="round"><rect x="440" y="46" width="150" height="116" rx="8" fill="#d9ecee"/><path d="M515 46V162M440 104H590" fill="none"/><rect x="70" y="56" width="320" height="150" rx="10" fill="#fff"/><rect x="70" y="56" width="320" height="150" rx="10" fill="url(#workshop-peg)" stroke="none"/></g><path d="M120 90V170" fill="none" stroke="#14181f" stroke-width="15" stroke-linecap="round" stroke-linejoin="round"/><path d="M120 90V170" fill="none" stroke="#fff" stroke-width="9" stroke-linecap="round" stroke-linejoin="round"/><g stroke="#14181f" stroke-width="3" stroke-linejoin="round" stroke-linecap="round"><circle cx="120" cy="84" r="13" fill="#fff"/><circle cx="120" cy="84" r="5" fill="#d9ecee"/><circle cx="120" cy="178" r="11" fill="#fff"/><circle cx="120" cy="178" r="4.5" fill="#d9ecee"/></g><path d="M170 80V128" fill="none" stroke="#14181f" stroke-width="9" stroke-linecap="round" stroke-linejoin="round"/><path d="M170 80V128" fill="none" stroke="#e4e1da" stroke-width="3" stroke-linecap="round" stroke-linejoin="round"/><g stroke="#14181f" stroke-width="3" stroke-linejoin="round" stroke-linecap="round"><rect x="160" y="126" width="20" height="52" rx="8" fill="#f2a33a"/><path d="M167 138V166M173 138V166" fill="none"/></g><path d="M214 82L234 176M254 82L234 176" fill="none" stroke="#14181f" stroke-width="13" stroke-linecap="round" stroke-linejoin="round"/><path d="M214 82L234 176M254 82L234 176" fill="none" stroke="#0d5c6b" stroke-width="7" stroke-linecap="round" stroke-linejoin="round"/><g stroke="#14181f" stroke-width="3" stroke-linejoin="round" stroke-linecap="round"><circle cx="234" cy="104" r="6" fill="#e4e1da"/></g><path d="M300 96V180" fill="none" stroke="#14181f" stroke-width="14" stroke-linecap="round" stroke-linejoin="round"/><path d="M300 96V180" fill="none" stroke="#fdf0d9" stroke-width="8" stroke-linecap="round" stroke-linejoin="round"/><g stroke="#14181f" stroke-width="3" stroke-linejoin="round" stroke-linecap="round"><rect x="276" y="78" width="48" height="22" rx="6" fill="#14181f"/></g><g stroke="#14181f" stroke-width="3" stroke-linejoin="round" stroke-linecap="round"><rect x="340" y="90" width="30" height="70" rx="8" fill="#d9ecee"/><circle cx="355" cy="112" r="7" fill="#fff"/><path d="M345 140h20M345 150h20" fill="none"/></g><g stroke="none"><path d="M528 150L520 158L470 256H560Z" fill="#fdf0d9" opacity=".85"/><path d="M164 205h6l3 -6 4 10 3 -6h18" fill="none" stroke="#0d5c6b" stroke-width="2"/></g><g stroke="#14181f" stroke-width="3" stroke-linejoin="round" stroke-linecap="round"><rect x="60" y="264" width="520" height="18" rx="4" fill="#e4e1da"/><rect x="80" y="282" width="16" height="118" fill="#e4e1da"/><rect x="544" y="282" width="16" height="118" fill="#e4e1da"/><rect x="96" y="350" width="448" height="10" fill="#e4e1da"/><rect x="120" y="316" width="70" height="34" rx="4" fill="#fdf0d9"/><rect x="204" y="322" width="60" height="28" rx="4" fill="#d9ecee"/><rect x="420" y="312" width="90" height="38" rx="4" fill="#fff"/><rect x="250" y="206" width="120" height="58" rx="12" fill="#e4e1da"/><ellipse cx="250" cy="235" rx="10" ry="29" fill="#f3f1ec"/><path d="M276 206V264M300 206V264M324 206V264" fill="none"/><rect x="370" y="228" width="26" height="14" rx="3" fill="#14181f"/><rect x="150" y="186" width="56" height="78" rx="8" fill="#f2a33a"/><rect x="158" y="194" width="40" height="22" rx="4" fill="#fff"/><circle cx="178" cy="236" r="11" fill="#fff"/><path d="M178 236l6 -6" fill="none"/><ellipse cx="480" cy="262" rx="34" ry="6" fill="#14181f"/><path d="M480 256L452 180L510 132" fill="none" stroke="#14181f" stroke-width="14" stroke-linecap="round" stroke-linejoin="round"/><path d="M480 256L452 180L510 132" fill="none" stroke="#0d5c6b" stroke-width="8" stroke-linecap="round" stroke-linejoin="round"/><path d="M492 118L536 142L520 158Z" fill="#0d5c6b"/><circle cx="466" cy="410" r="0.1" fill="none"/></g><path d="M600 212 Q601.4 218.6 608 220 Q601.4 221.4 600 228 Q598.6 221.4 592 220 Q598.6 218.6 600 212Z" fill="#f2a33a" stroke="none"/><path d="M44 223 Q45.3 228.7 51 230 Q45.3 231.3 44 237 Q42.7 231.3 37 230 Q42.7 228.7 44 223Z" fill="#0d5c6b" stroke="none"/></svg>
